<svg width="75" height="90" viewBox="0 0 75 90" fill="none" xmlns="http://www.w3.org/2000/svg">
<path d="M37.5 47.6977C40.0781 47.6977 42.2852 46.7636 44.1211 44.8955C45.957 43.0273 46.875 40.7816 46.875 38.1582C46.875 35.5348 45.957 33.289 44.1211 31.4209C42.2852 29.5527 40.0781 28.6186 37.5 28.6186C34.9219 28.6186 32.7148 29.5527 30.8789 31.4209C29.043 33.289 28.125 35.5348 28.125 38.1582C28.125 40.7816 29.043 43.0273 30.8789 44.8955C32.7148 46.7636 34.9219 47.6977 37.5 47.6977ZM48.0436 85.7219C42.2138 91.426 32.7862 91.426 26.9564 85.7219C19.528 78.4535 13.648 71.5622 9.31639 65.0478C3.10545 55.707 0 47.0618 0 39.1121C0 27.1877 3.76954 17.6879 11.3086 10.6127C18.8477 3.53758 27.5781 0 37.5 0C47.4219 0 56.1523 3.53758 63.6914 10.6127C71.2305 17.6879 75 27.1877 75 39.1121C75 47.0618 71.8945 55.707 65.6836 65.0478C61.352 71.5622 55.472 78.4535 48.0436 85.7219Z" fill="#FA7E61"/>
<path d="M37.5 47.6977C40.0781 47.6977 42.2852 46.7636 44.1211 44.8955C45.957 43.0273 46.875 40.7816 46.875 38.1582C46.875 35.5348 45.957 33.289 44.1211 31.4209C42.2852 29.5527 40.0781 28.6186 37.5 28.6186C34.9219 28.6186 32.7148 29.5527 30.8789 31.4209C29.043 33.289 28.125 35.5348 28.125 38.1582C28.125 40.7816 29.043 43.0273 30.8789 44.8955C32.7148 46.7636 34.9219 47.6977 37.5 47.6977ZM48.0436 85.7219C42.2138 91.426 32.7862 91.426 26.9564 85.7219C19.528 78.4535 13.648 71.5622 9.31639 65.0478C3.10545 55.707 0 47.0618 0 39.1121C0 27.1877 3.76954 17.6879 11.3086 10.6127C18.8477 3.53758 27.5781 0 37.5 0C47.4219 0 56.1523 3.53758 63.6914 10.6127C71.2305 17.6879 75 27.1877 75 39.1121C75 47.0618 71.8945 55.707 65.6836 65.0478C61.352 71.5622 55.472 78.4535 48.0436 85.7219Z" fill="#FA7E61"/>
</svg>
