<svg xmlns="http://www.w3.org/2000/svg" width="24" height="24" fill="none" viewBox="0 0 24 24"><path fill="#000" fill-rule="evenodd" d="M10 3.5c5.21-1 10.06 2.06 11 7.08l.1.66c.55 4.76-2.76 9.02-7.75 9.96-5.22 1-10.06-2.06-11.01-7.08S4.77 4.48 9.99 3.5m.1 11.74-.17.12c-2.7.73-3.59 1.05-4.97 1.46a7.9 7.9 0 0 0 7.56 3.1 37 37 0 0 1-1.81-3.76.7.7 0 0 1 .02-.57q-.34-.14-.64-.35m3.48.36a4 4 0 0 1-1.48.29q.83 1.94 1.85 3.74l.4-.12-.08-.25a20 20 0 0 0-.7-3.66m6.2-3.36a37 37 0 0 1-4.36 1.6q-.27.55-.72 1 .15.13.2.32.54 1.89.73 3.79a7.6 7.6 0 0 0 4.14-6.71m-11.22.55c-1.43.72-3 1.45-4.56 2.17l.23.59.08-.02c1.38-.26 3.06-.81 4.78-1.32a4 4 0 0 1-.53-1.42m10.89-2.75-.24.1c-1.13.19-2.44.45-3.72.7a4 4 0 0 1 .3 1.44q1.8-.59 3.84-1.5-.07-.38-.18-.74m-9.2-5.18c-4.44.84-7.22 4.63-6.6 8.72a117 117 0 0 0 5.04-2.4 3.64 3.64 0 0 1 5.92-1.59h.03c1.4-.27 2.97-.59 4.29-.82-1.53-2.95-4.94-4.62-8.68-3.9" clip-rule="evenodd"/></svg>