<svg xmlns="http://www.w3.org/2000/svg" width="24" height="24" fill="none" viewBox="0 0 24 24"><path fill="#000" d="M13.4 7.04a.75.75 0 0 1 1 1.12c-1.24 1.1-2.46 2.23-3.68 3.26l2.44.02q2.3.03 4.9-.09a.75.75 0 0 1 .08 1.5c-1.77.1-3.47.1-5 .09l-2.34-.02 3.7 3.32a.75.75 0 1 1-1 1.12c-1.82-1.62-3.5-3.2-5.28-4.68a.75.75 0 0 1 .02-1.18c1.67-1.27 3.34-2.84 5.16-4.46"/><path fill="#000" fill-rule="evenodd" d="M11.97 2.35c2.94-.1 5.4.86 7.1 2.62a9.3 9.3 0 0 1 2.49 6.53l-.01.53a9.8 9.8 0 0 1-3 6.97 9.5 9.5 0 0 1-6.98 2.45c-5.51-.22-9.24-4.37-9.02-9.68a9.5 9.5 0 0 1 9.42-9.42m.06 1.5a8 8 0 0 0-7.98 7.98c-.18 4.49 2.9 7.94 7.58 8.12a8 8 0 0 0 5.9-2.05 8.3 8.3 0 0 0 2.52-5.93A8 8 0 0 0 18 6.01c-1.37-1.42-3.4-2.25-5.97-2.16" clip-rule="evenodd"/></svg>