<svg xmlns="http://www.w3.org/2000/svg" width="24" height="24" fill="none" viewBox="0 0 24 24"><path fill="#000" d="M14.607 8.252a.75.75 0 0 1 .105 1.496q-.076.006-.127.01a5 5 0 0 0-.282.369c-.303.462-.8 1.266-1.147 1.975-.358.733-.566 1.323-.648 1.719-.073.35-.14.709-.193.936-.024.104-.06.252-.116.376-.016.037-.093.218-.277.351a.774.774 0 0 1-.992-.07c-.182-.175-.807-.704-1.431-1.707a48 48 0 0 1-1.154-1.944.75.75 0 0 1 1.31-.73c.104.186.474.846 1.118 1.882q.153.245.301.442c.131-.538.383-1.194.736-1.914.393-.805.94-1.685 1.255-2.163l.015-.024c.357-.5.618-.82 1.04-.943l.033-.01.037-.007c.139-.027.31-.037.417-.044"/><path fill="#000" fill-rule="evenodd" d="M11.73 2.8a.75.75 0 0 1 .624.038c2.667 1.429 4.922 1.614 6.769 1.921a.75.75 0 0 1 .627.74v5.7c0 4.63-3.12 7.633-7.454 9.49a.75.75 0 0 1-.592 0C7.371 18.832 4.25 15.83 4.25 11.2V5.5c0-.366.265-.68.627-.74 1.847-.307 4.103-.492 6.769-1.92zM12 4.34c-2.456 1.24-4.619 1.552-6.25 1.8V11.2c0 3.678 2.36 6.238 6.25 7.98 3.89-1.742 6.25-4.302 6.25-7.98V6.14c-1.63-.248-3.794-.56-6.25-1.8" clip-rule="evenodd"/></svg>