<svg xmlns="http://www.w3.org/2000/svg" width="24" height="24" fill="none" viewBox="0 0 24 24"><path fill="#000" fill-rule="evenodd" d="M14.19 2.833c.371 1.621.976 3.6 1.496 5.194.784.173 1.672.349 2.564.526 1.041.206 2.089.418 2.933.63a.75.75 0 0 1 .288 1.311c-1.283 1.034-2.873 2.271-4.171 3.418.396 1.857.893 4.158 1.152 5.983a.75.75 0 0 1-1.123.752c-1.567-.922-3.262-2.016-4.696-2.83-.777.429-1.597.9-2.397 1.364-.921.533-1.822 1.057-2.585 1.476a.75.75 0 0 1-1.104-.756c.256-1.94.748-4.226 1.144-5.976-1.437-1.192-3.024-2.538-4.154-3.424A.751.751 0 0 1 3.83 9.18c.907-.211 1.983-.42 3.042-.627.902-.176 1.79-.352 2.573-.525.545-1.722 1.303-3.778 1.794-5.263.101-.307.926-.765 1.25-.765.645.004 1.499-.05 1.701.833m-1.702.917c-.547 1.612-1.244 3.516-1.738 5.136a.75.75 0 0 1-.548.511c-.907.211-1.984.42-3.042.627-.498.098-.993.195-1.467.29 1.055.867 2.26 1.885 3.308 2.75a.75.75 0 0 1 .254.746c-.314 1.369-.701 3.12-.988 4.775l1.218-.702c.925-.535 1.893-1.094 2.794-1.583l.086-.04a.75.75 0 0 1 .633.042c1.096.602 2.444 1.444 3.709 2.218-.284-1.566-.659-3.282-.965-4.722a.75.75 0 0 1 .23-.711c1.005-.913 2.23-1.9 3.343-2.788-.435-.09-.892-.182-1.357-.275-1.04-.206-2.117-.416-3.024-.627a.75.75 0 0 1-.542-.495c-.493-1.49-1.1-3.444-1.523-5.152z" clip-rule="evenodd"/></svg>