<svg width="24" height="24" viewBox="0 0 24 24" fill="none" xmlns="http://www.w3.org/2000/svg">
<path fill-rule="evenodd" clip-rule="evenodd" d="M18.0002 3.25C19.5255 3.25 20.7502 4.47468 20.7502 6C20.7502 7.52533 19.5255 8.75 18.0002 8.75C17.2243 8.75 16.5272 8.43209 16.0285 7.91992C12.7459 9.39279 10.323 11.3821 8.59003 13.0771C8.692 13.3656 8.75018 13.6755 8.75018 14C8.75018 14.1847 8.73076 14.3648 8.69647 14.5391C10.516 15.6141 12.7869 16.7975 15.6662 17.5439C16.1505 16.7661 17.0112 16.25 18.0002 16.25C19.5255 16.25 20.7502 17.4747 20.7502 19C20.7502 20.5253 19.5255 21.75 18.0002 21.75C16.4749 21.75 15.2502 20.5253 15.2502 19C15.2502 18.9951 15.2502 18.9902 15.2502 18.9854C12.2408 18.1998 9.87022 16.97 8.01093 15.876C7.50989 16.4131 6.79737 16.75 6.00018 16.75C4.47486 16.75 3.25018 15.5253 3.25018 14C3.25018 12.4747 4.47486 11.25 6.00018 11.25C6.64637 11.25 7.23725 11.4715 7.70526 11.8408C9.49124 10.118 11.9782 8.11149 15.3156 6.59668C15.2735 6.40464 15.2502 6.20517 15.2502 6C15.2502 4.47468 16.4749 3.25 18.0002 3.25ZM18.0002 17.75C17.3033 17.75 16.7502 18.3031 16.7502 19C16.7502 19.6969 17.3033 20.25 18.0002 20.25C18.6971 20.25 19.2502 19.6969 19.2502 19C19.2502 18.3031 18.6971 17.75 18.0002 17.75ZM6.00018 12.75C5.30329 12.75 4.75018 13.3031 4.75018 14C4.75018 14.6969 5.30329 15.25 6.00018 15.25C6.69708 15.25 7.25018 14.6969 7.25018 14C7.25018 13.3031 6.69708 12.75 6.00018 12.75ZM18.0002 4.75C17.3033 4.75 16.7502 5.3031 16.7502 6C16.7502 6.6969 17.3033 7.25 18.0002 7.25C18.6971 7.25 19.2502 6.6969 19.2502 6C19.2502 5.3031 18.6971 4.75 18.0002 4.75Z" fill="black"/>
</svg>
