<svg xmlns="http://www.w3.org/2000/svg" width="24" height="24" fill="none" viewBox="0 0 24 24"><path fill="#000" d="M12 13.41c1.07-.13 1.88.68 1.75 1.63a2.2 2.2 0 0 1-1.22 1.62l.14 2.03c0 .4-.27.67-.68.67a.64.64 0 0 1-.67-.67l.13-2.03c-.68-.4-1.08-.95-1.08-1.62 0-.95.68-1.63 1.62-1.63"/><path fill="#000" fill-rule="evenodd" d="M11.97 2.26a6.3 6.3 0 0 1 5.2 2.16c.83 1 1.33 2.28 1.49 3.65.67.03 1.29.24 1.74.69.48.48.66 1.14.59 1.84l-.14 8.5a2.5 2.5 0 0 1-.82 1.95 2.6 2.6 0 0 1-1.97.55l-12.14.14a2.5 2.5 0 0 1-1.98-.63 2.3 2.3 0 0 1-.67-1.92l.13-9.21q-.17-.37-.06-.77c.1-.34.35-.58.59-.74q.52-.32 1.25-.33a6.4 6.4 0 0 1 1.65-3.72 7 7 0 0 1 5.14-2.16m6.72 7.42a.75.75 0 0 1-1.5-.1l-10.56.11a.75.75 0 0 1-1.46-.05q-.15 0-.28.03l.01.1-.14 9.47v.08c-.04.33.06.56.21.7s.43.27.85.22h.08l12.17-.14h.09c.45.06.74-.05.9-.2.15-.12.3-.37.3-.8v-.02l.13-8.52v-.08c.05-.36-.05-.55-.15-.66s-.3-.21-.65-.24zm-6.67-5.93c-1.8.07-3.18.7-4.1 1.7a5 5 0 0 0-1.24 2.74l10.47-.1A5.3 5.3 0 0 0 16 5.37a4.8 4.8 0 0 0-4-1.63" clip-rule="evenodd"/></svg>