<svg xmlns="http://www.w3.org/2000/svg" width="24" height="24" fill="none" viewBox="0 0 24 24"><path fill="#000" d="M12.139 19.3a.75.75 0 0 1 1.344.666c-.439.886-1.277 1.458-2.301 1.377-.923-.073-1.609-.802-2.011-1.61a.751.751 0 0 1 1.344-.668c.3.603.628.77.785.783.325.026.63-.127.839-.547M9.994 6.061c.608-.41 1.443-.458 2.282-.291a.75.75 0 0 1-.292 1.47c-.657-.13-1.018-.026-1.152.064-.221.15-.429.45-.48.976a.75.75 0 0 1-1.493-.144c.085-.871.466-1.623 1.135-2.075"/><path fill="#000" fill-rule="evenodd" d="M12.314 1.872c3.732.295 5.896 3.464 5.753 7.15l-.015.576c-.035 2.624.403 4.327 1.294 5.72l.198.293.008.013c.375.553.45 1.22.23 1.79a1.7 1.7 0 0 1-1.464 1.09 1 1 0 0 1-.13-.001L4.03 17.248a1 1 0 0 1-.115-.02c-.636-.158-1.123-.603-1.274-1.215-.149-.6.059-1.22.497-1.687l.01-.01c1.322-1.354 2.115-3.145 2.495-6.277.217-1.82.934-3.398 2.09-4.511C8.9 2.407 10.466 1.803 12.283 1.87zm-.107 1.496c-1.423-.048-2.58.42-3.432 1.24-.864.831-1.458 2.069-1.642 3.61-.401 3.316-1.275 5.463-2.901 7.133v.001c-.152.163-.14.276-.134.3a.1.1 0 0 0 .03.05.3.3 0 0 0 .12.059L18.228 17a.2.2 0 0 0 .089-.036c.025-.02.05-.049.067-.093.034-.09.038-.243-.073-.407-1.343-1.904-1.868-4.163-1.743-7.5.12-3.077-1.624-5.374-4.36-5.597" clip-rule="evenodd"/></svg>