<svg xmlns="http://www.w3.org/2000/svg" width="24" height="24" fill="none" viewBox="0 0 24 24"><path fill="#000" d="M12.17 14.02a6.4 6.4 0 0 1 5.18 3.03.75.75 0 0 1-1.25.83 5 5 0 0 0-4.02-2.37c-1.4-.08-2.85.57-3.92 2.26a.75.75 0 1 1-1.27-.8c1.33-2.12 3.28-3.07 5.28-2.95"/><path fill="#000" fill-rule="evenodd" d="M12.17 6.62c1.02.06 1.9.45 2.53 1.12s.94 1.58.87 2.57a3.3 3.3 0 0 1-3.6 3.2 3.65 3.65 0 0 1-3.4-3.4 3.2 3.2 0 0 1 1-2.62 3.5 3.5 0 0 1 2.6-.87m-.1 1.5a2 2 0 0 0-1.47.47c-.34.31-.56.79-.53 1.42l.03.2c.16 1.01 1 1.74 1.98 1.8 1.09.08 1.92-.61 2-1.8.04-.6-.15-1.1-.48-1.45a2.2 2.2 0 0 0-1.52-.65" clip-rule="evenodd"/><path fill="#000" fill-rule="evenodd" d="M12.1 3.02c2.98-.16 5.45.8 7.13 2.58 1.68 1.77 2.5 4.29 2.34 7.1a9.8 9.8 0 0 1-3.04 6.83 9.4 9.4 0 0 1-6.43 2.4l-.5-.01c-5.41-.22-9.14-4.27-8.92-9.58.21-5.3 4.03-9.1 9.42-9.32m.06 1.5c-4.62.18-7.8 3.37-7.99 7.88-.18 4.48 2.9 7.83 7.49 8.02a8 8 0 0 0 5.86-2 8.3 8.3 0 0 0 2.56-5.8c.14-2.48-.59-4.56-1.94-5.99-1.34-1.42-3.36-2.26-5.98-2.12" clip-rule="evenodd"/></svg>