<svg xmlns="http://www.w3.org/2000/svg" width="24" height="24" fill="none" viewBox="0 0 24 24"><path fill="#000" fill-rule="evenodd" d="M9.28 5.34c2.28-.22 4.71.03 5.61.1 1.26.1 2.06.93 2.58 1.7q.4.62.68 1.17t.48.84c.02.02.07.07.47.22.33.11.84.29 1.31.67 1 .83 1.54 2.38 1.27 5.44-.08.87-.74 1.29-1.3 1.47a6 6 0 0 1-1.23.23 3.2 3.2 0 0 1-3.07 2.39 3.2 3.2 0 0 1-2.91-1.9c-1.05.06-2.04.13-2.96.05a3.2 3.2 0 0 1-2.88 1.85A3.2 3.2 0 0 1 4.3 17.3a1 1 0 0 0-.36.03c-.06.01-.2.05-.33.06-.14.02-.37.02-.62-.1-.25-.14-.4-.35-.47-.54a2 2 0 0 1-.16-.58q-.09-.59-.1-1.81a6.4 6.4 0 0 1 .87-3.63c.47-.8.85-1.21 1.04-2.13a3.3 3.3 0 0 1 1.9-2.43 9 9 0 0 1 3.22-.84M7.34 14.7a1.7 1.7 0 0 0-1.68 1.68c0 .9.77 1.68 1.68 1.68.7 0 1.31-.46 1.56-1.08a1 1 0 0 1 .12-.51v-.1a1.7 1.7 0 0 0-1.68-1.67m8.75 0a1.7 1.7 0 0 0-1.68 1.68c0 .9.77 1.68 1.68 1.68a1.7 1.7 0 0 0 1.68-1.68 1.7 1.7 0 0 0-1.68-1.68m-1.3-7.78c-.95-.07-3.24-.3-5.35-.1-1.05.11-2 .32-2.69.68q-.99.5-1.1 1.36v.05c-.27 1.23-.87 1.96-1.23 2.59-.36.6-.68 1.33-.66 2.84q.01 1.05.07 1.48.17-.03.39-.03a3.2 3.2 0 0 1 3.12-2.6 3.2 3.2 0 0 1 3.18 3.05c.68.03 1.45-.02 2.4-.08a3.2 3.2 0 0 1 3.17-2.96 3.2 3.2 0 0 1 3.09 2.46q.44-.04.74-.14a1 1 0 0 0 .26-.13l.02-.05c.25-2.94-.32-3.81-.73-4.15-.24-.2-.5-.3-.87-.42-.21-.08-.57-.2-.88-.44l-.16.12c-1.6.8-3.67.9-5.6.79-1.94-.12-3.88-.49-5.28-.72a.75.75 0 0 1 .24-1.48c1.45.24 3.3.59 5.14.7 1.86.12 3.59-.01 4.83-.63l-.06-.1q-.28-.55-.59-1.03c-.43-.64-.88-1-1.46-1.06" clip-rule="evenodd"/></svg>