<svg xmlns="http://www.w3.org/2000/svg" width="24" height="24" fill="none" viewBox="0 0 24 24"><path fill="#000" d="M11.8 17.3c.4-.2.8 0 .9.4s-.3.7-.7.6-.5-.6-.2-1m.73-10.66.17.02c1.78.25 3.03 1.81 2.63 3.59v.02c-.14.7-.55 1.24-.96 1.65s-.86.72-1.2.96c-.33.29-.49.47-.58.66-.08.17-.13.44-.05.94a.75.75 0 1 1-1.48.24 3 3 0 0 1 .17-1.81c.24-.5.62-.87.98-1.18l.05-.04c.36-.26.74-.52 1.05-.83q.46-.46.56-.9v-.03c.19-.82-.35-1.64-1.37-1.79-1.15-.15-1.99.51-2.05 1.5a.75.75 0 1 1-1.5-.09c.13-1.94 1.79-3.07 3.58-2.91"/><path fill="#000" fill-rule="evenodd" d="M11.96 2.45c3-.16 5.5.83 7.2 2.62a9.3 9.3 0 0 1 2.39 7.07 9.8 9.8 0 0 1-3.1 6.9 9.5 9.5 0 0 1-7 2.3 9.6 9.6 0 0 1-6.63-2.96 9 9 0 0 1-2.27-6.73c.32-5.28 4.13-8.98 9.41-9.2m.08 1.5c-4.52.18-7.7 3.28-7.98 7.8a7.5 7.5 0 0 0 1.88 5.62 8 8 0 0 0 5.61 2.48 8 8 0 0 0 5.9-1.92 8.3 8.3 0 0 0 2.61-5.87 7.8 7.8 0 0 0-1.98-5.95c-1.37-1.44-3.43-2.3-6.03-2.16" clip-rule="evenodd"/></svg>