<svg xmlns="http://www.w3.org/2000/svg" width="24" height="24" fill="none" viewBox="0 0 24 24"><path fill="#000" d="M10.95 15.5c1.36-.07 2.14-.24 3.24.02a.75.75 0 1 1-.35 1.46c-.82-.2-1.2-.07-2.82.01a.75.75 0 0 1-.07-1.5m.98-4.29c1.06.04 1.93.16 3 .05a.75.75 0 1 1 .14 1.5c-1.19.11-2.3-.02-3.18-.05a5 5 0 0 0-2.56.47.75.75 0 1 1-.67-1.34 6.5 6.5 0 0 1 3.27-.63m4.49-3.95a.75.75 0 0 1 .16 1.5c-2.23.24-3.16.39-4.05.39S10.77 9 8.67 8.75c-.06 0-.09.02-.32.15-.3.17-.69.35-1.35.35a.75.75 0 0 1 0-1.5c.34 0 .47-.07.61-.15.18-.1.53-.35 1.09-.35h.1c2.22.28 2.95.4 3.73.39.78 0 1.56-.13 3.89-.39"/><path fill="#000" fill-rule="evenodd" d="M11.97 2.45c2.99-.16 5.46.8 7.14 2.58s2.5 4.3 2.34 7.11a9.8 9.8 0 0 1-3.04 6.83 9.4 9.4 0 0 1-6.43 2.39l-.51-.01c-5.4-.22-9.14-4.26-8.92-9.58.22-5.3 4.04-9.1 9.42-9.32m.07 1.5c-4.61.18-7.8 3.38-7.98 7.88-.18 4.48 2.89 7.84 7.48 8.02 2.37.1 4.4-.65 5.86-2a8.3 8.3 0 0 0 2.56-5.8c.14-2.47-.59-4.56-1.93-5.98s-3.37-2.26-5.98-2.12" clip-rule="evenodd"/></svg>