<svg width="512" height="512" viewBox="0 0 512 512" fill="none" xmlns="http://www.w3.org/2000/svg">
<path d="M256 263.674C263.333 263.674 269.611 261.017 274.833 255.703C280.056 250.389 282.667 244.001 282.667 236.539C282.667 229.077 280.056 222.689 274.833 217.375C269.611 212.061 263.333 209.404 256 209.404C248.667 209.404 242.389 212.061 237.167 217.375C231.944 222.689 229.333 229.077 229.333 236.539C229.333 244.001 231.944 250.389 237.167 255.703C242.389 261.017 248.667 263.674 256 263.674ZM285.991 371.831C269.408 388.056 242.592 388.056 226.009 371.831C204.88 351.157 188.154 331.555 175.833 313.025C158.167 286.455 149.333 261.865 149.333 239.252C149.333 205.334 160.056 178.312 181.5 158.187C202.945 138.062 227.778 128 256 128C284.222 128 309.056 138.062 330.5 158.187C351.944 178.312 362.667 205.334 362.667 239.252C362.667 261.865 353.833 286.455 336.167 313.025C323.846 331.555 307.12 351.157 285.991 371.831Z" fill="black"/>
<path d="M256 263.674C263.333 263.674 269.611 261.017 274.833 255.703C280.056 250.389 282.667 244.001 282.667 236.539C282.667 229.077 280.056 222.689 274.833 217.375C269.611 212.061 263.333 209.404 256 209.404C248.667 209.404 242.389 212.061 237.167 217.375C231.944 222.689 229.333 229.077 229.333 236.539C229.333 244.001 231.944 250.389 237.167 255.703C242.389 261.017 248.667 263.674 256 263.674ZM285.991 371.831C269.408 388.056 242.592 388.056 226.009 371.831C204.88 351.157 188.154 331.555 175.833 313.025C158.167 286.455 149.333 261.865 149.333 239.252C149.333 205.334 160.056 178.312 181.5 158.187C202.945 138.062 227.778 128 256 128C284.222 128 309.056 138.062 330.5 158.187C351.944 178.312 362.667 205.334 362.667 239.252C362.667 261.865 353.833 286.455 336.167 313.025C323.846 331.555 307.12 351.157 285.991 371.831Z" fill="black"/>
</svg>
